<svg xmlns="http://www.w3.org/2000/svg" xmlns:xlink="http://www.w3.org/1999/xlink" width="1080" zoomAndPan="magnify" viewBox="0 0 810 1439.999935" height="1920" preserveAspectRatio="xMidYMid meet" version="1.0"><defs><clipPath id="fb647cf61f"><path d="M 287 760 L 402 760 L 402 929 L 287 929 Z M 287 760 " clip-rule="nonzero"/></clipPath><clipPath id="c728a203b7"><path d="M 330.496094 741.207031 L 427.625 903.335938 L 384.519531 929.160156 L 287.390625 767.03125 Z M 330.496094 741.207031 " clip-rule="nonzero"/></clipPath><clipPath id="f183b0dc05"><path d="M 330.496094 741.207031 L 427.625 903.335938 L 384.519531 929.160156 L 287.390625 767.03125 Z M 330.496094 741.207031 " clip-rule="nonzero"/></clipPath><clipPath id="b982a67e0c"><path d="M 330.429688 741.246094 L 428.167969 904.398438 L 384.6875 930.445312 L 286.945312 767.296875 Z M 330.429688 741.246094 " clip-rule="nonzero"/></clipPath><clipPath id="324875046e"><path d="M 330.429688 741.246094 L 427.621094 903.480469 L 384.628906 929.238281 L 287.433594 767.003906 Z M 330.429688 741.246094 " clip-rule="nonzero"/></clipPath><clipPath id="8151291c7f"><path d="M 54 690.183594 L 501 690.183594 L 501 1168.683594 L 54 1168.683594 Z M 54 690.183594 " clip-rule="nonzero"/></clipPath></defs><path fill="#345678" d="M 451.867188 490.046875 C 451.867188 493.671875 454.816406 496.683594 458.503906 496.683594 C 462.132812 496.683594 465.082031 493.671875 465.082031 490.046875 C 465.082031 486.417969 462.132812 483.46875 458.503906 483.46875 C 454.816406 483.46875 451.867188 486.417969 451.867188 490.046875 Z M 451.867188 490.046875 " fill-opacity="1" fill-rule="nonzero"/><path fill="#345678" d="M 379.636719 466.195312 C 379.636719 469.820312 382.589844 472.773438 386.277344 472.773438 C 389.902344 472.773438 392.914062 469.820312 392.914062 466.195312 C 392.914062 462.507812 389.902344 459.554688 386.277344 459.554688 C 382.589844 459.554688 379.636719 462.507812 379.636719 466.195312 Z M 379.636719 466.195312 " fill-opacity="1" fill-rule="nonzero"/><path fill="#345678" d="M 345.765625 381.917969 C 345.765625 382.347656 345.722656 382.777344 345.640625 383.199219 C 345.554688 383.625 345.429688 384.035156 345.261719 384.433594 C 345.09375 384.832031 344.890625 385.210938 344.648438 385.570312 C 344.40625 385.929688 344.128906 386.261719 343.824219 386.566406 C 343.515625 386.875 343.179688 387.144531 342.816406 387.386719 C 342.453125 387.625 342.070312 387.828125 341.667969 387.992188 C 341.265625 388.160156 340.851562 388.285156 340.421875 388.367188 C 339.996094 388.453125 339.5625 388.496094 339.128906 388.496094 C 338.691406 388.496094 338.261719 388.453125 337.832031 388.367188 C 337.40625 388.285156 336.988281 388.160156 336.585938 387.992188 C 336.183594 387.828125 335.800781 387.625 335.441406 387.386719 C 335.078125 387.144531 334.742188 386.875 334.433594 386.566406 C 334.125 386.261719 333.851562 385.929688 333.609375 385.570312 C 333.367188 385.210938 333.160156 384.832031 332.996094 384.433594 C 332.828125 384.035156 332.703125 383.625 332.617188 383.199219 C 332.53125 382.777344 332.488281 382.347656 332.488281 381.917969 C 332.488281 381.484375 332.53125 381.058594 332.617188 380.632812 C 332.703125 380.210938 332.828125 379.796875 332.996094 379.398438 C 333.160156 379 333.367188 378.621094 333.609375 378.261719 C 333.851562 377.902344 334.125 377.570312 334.433594 377.265625 C 334.742188 376.960938 335.078125 376.6875 335.441406 376.449219 C 335.800781 376.207031 336.183594 376.003906 336.585938 375.839844 C 336.988281 375.675781 337.40625 375.550781 337.832031 375.464844 C 338.261719 375.382812 338.691406 375.339844 339.128906 375.339844 C 339.5625 375.339844 339.996094 375.382812 340.421875 375.464844 C 340.851562 375.550781 341.265625 375.675781 341.667969 375.839844 C 342.070312 376.003906 342.453125 376.207031 342.816406 376.449219 C 343.179688 376.6875 343.515625 376.960938 343.824219 377.265625 C 344.128906 377.570312 344.40625 377.902344 344.648438 378.261719 C 344.890625 378.621094 345.09375 379 345.261719 379.398438 C 345.429688 379.796875 345.554688 380.210938 345.640625 380.632812 C 345.722656 381.058594 345.765625 381.484375 345.765625 381.917969 Z M 345.765625 381.917969 " fill-opacity="1" fill-rule="nonzero"/><path fill="#345678" d="M 321.484375 496.683594 C 321.484375 500.3125 324.4375 503.261719 328.0625 503.261719 C 331.75 503.261719 334.703125 500.3125 334.703125 496.683594 C 334.703125 492.996094 331.75 490.046875 328.0625 490.046875 C 324.4375 490.046875 321.484375 492.996094 321.484375 496.683594 Z M 321.484375 496.683594 " fill-opacity="1" fill-rule="nonzero"/><path fill="#345678" d="M 311.28125 423.101562 C 311.28125 426.789062 314.292969 429.742188 317.921875 429.742188 C 321.609375 429.742188 324.558594 426.789062 324.558594 423.101562 C 324.558594 419.476562 321.609375 416.523438 317.921875 416.523438 C 314.292969 416.523438 311.28125 419.476562 311.28125 423.101562 Z M 311.28125 423.101562 " fill-opacity="1" fill-rule="nonzero"/><path fill="#345678" d="M 206.964844 442.957031 C 210.589844 442.957031 213.601562 439.945312 213.601562 436.320312 C 213.601562 432.691406 210.589844 429.742188 206.964844 429.742188 C 203.277344 429.742188 200.324219 432.691406 200.324219 436.320312 C 200.324219 439.945312 203.277344 442.957031 206.964844 442.957031 Z M 206.964844 442.957031 " fill-opacity="1" fill-rule="nonzero"/><path fill="#345678" d="M 447.132812 466.195312 C 447.132812 466.847656 447.101562 467.5 447.035156 468.152344 C 446.972656 468.804688 446.875 469.449219 446.75 470.089844 C 446.621094 470.734375 446.460938 471.367188 446.269531 471.992188 C 446.082031 472.621094 445.859375 473.234375 445.609375 473.839844 C 445.355469 474.445312 445.078125 475.035156 444.765625 475.613281 C 444.457031 476.1875 444.121094 476.75 443.757812 477.292969 C 443.390625 477.835938 443 478.363281 442.585938 478.867188 C 442.167969 479.375 441.726562 479.859375 441.265625 480.320312 C 440.800781 480.785156 440.3125 481.222656 439.808594 481.636719 C 439.300781 482.050781 438.773438 482.441406 438.226562 482.804688 C 437.679688 483.167969 437.121094 483.503906 436.539062 483.8125 C 435.960938 484.121094 435.367188 484.402344 434.761719 484.652344 C 434.15625 484.902344 433.539062 485.121094 432.910156 485.3125 C 432.28125 485.503906 431.648438 485.660156 431.003906 485.789062 C 430.359375 485.917969 429.710938 486.011719 429.058594 486.078125 C 428.40625 486.140625 427.75 486.171875 427.09375 486.171875 C 426.4375 486.171875 425.78125 486.140625 425.128906 486.078125 C 424.476562 486.011719 423.828125 485.917969 423.183594 485.789062 C 422.539062 485.660156 421.90625 485.503906 421.277344 485.3125 C 420.648438 485.121094 420.03125 484.902344 419.425781 484.652344 C 418.820312 484.402344 418.226562 484.121094 417.648438 483.8125 C 417.066406 483.503906 416.507812 483.167969 415.960938 482.804688 C 415.414062 482.441406 414.886719 482.050781 414.378906 481.636719 C 413.875 481.222656 413.386719 480.785156 412.921875 480.320312 C 412.460938 479.859375 412.019531 479.375 411.601562 478.867188 C 411.1875 478.363281 410.796875 477.835938 410.429688 477.292969 C 410.066406 476.75 409.730469 476.1875 409.421875 475.613281 C 409.109375 475.035156 408.832031 474.445312 408.578125 473.839844 C 408.328125 473.234375 408.109375 472.621094 407.917969 471.992188 C 407.726562 471.367188 407.566406 470.734375 407.4375 470.089844 C 407.3125 469.449219 407.214844 468.804688 407.152344 468.152344 C 407.085938 467.5 407.054688 466.847656 407.054688 466.195312 C 407.054688 465.539062 407.085938 464.886719 407.152344 464.234375 C 407.214844 463.585938 407.3125 462.9375 407.4375 462.296875 C 407.566406 461.65625 407.726562 461.019531 407.917969 460.394531 C 408.109375 459.769531 408.328125 459.152344 408.578125 458.550781 C 408.832031 457.945312 409.109375 457.355469 409.421875 456.777344 C 409.730469 456.199219 410.066406 455.640625 410.429688 455.09375 C 410.796875 454.550781 411.1875 454.027344 411.601562 453.519531 C 412.019531 453.015625 412.460938 452.53125 412.921875 452.066406 C 413.386719 451.605469 413.875 451.164062 414.378906 450.75 C 414.886719 450.335938 415.414062 449.945312 415.960938 449.582031 C 416.507812 449.21875 417.066406 448.882812 417.648438 448.574219 C 418.226562 448.265625 418.820312 447.988281 419.425781 447.738281 C 420.03125 447.484375 420.648438 447.265625 421.277344 447.078125 C 421.90625 446.886719 422.539062 446.726562 423.183594 446.601562 C 423.828125 446.472656 424.476562 446.375 425.128906 446.3125 C 425.78125 446.246094 426.4375 446.214844 427.09375 446.214844 C 427.75 446.214844 428.40625 446.246094 429.058594 446.3125 C 429.710938 446.375 430.359375 446.472656 431.003906 446.601562 C 431.648438 446.726562 432.28125 446.886719 432.910156 447.078125 C 433.539062 447.265625 434.15625 447.484375 434.761719 447.738281 C 435.367188 447.988281 435.960938 448.265625 436.539062 448.574219 C 437.121094 448.882812 437.679688 449.21875 438.226562 449.582031 C 438.773438 449.945312 439.300781 450.335938 439.808594 450.75 C 440.3125 451.164062 440.800781 451.605469 441.265625 452.066406 C 441.726562 452.53125 442.167969 453.015625 442.585938 453.519531 C 443 454.027344 443.390625 454.550781 443.757812 455.09375 C 444.121094 455.640625 444.457031 456.199219 444.765625 456.777344 C 445.078125 457.355469 445.355469 457.945312 445.609375 458.550781 C 445.859375 459.152344 446.082031 459.769531 446.269531 460.394531 C 446.460938 461.019531 446.621094 461.65625 446.75 462.296875 C 446.875 462.9375 446.972656 463.585938 447.035156 464.234375 C 447.101562 464.886719 447.132812 465.539062 447.132812 466.195312 Z M 447.132812 466.195312 " fill-opacity="1" fill-rule="nonzero"/><path fill="#345678" d="M 657.367188 802.199219 C 657.367188 798.570312 654.414062 795.621094 650.726562 795.621094 C 647.101562 795.621094 644.148438 798.570312 644.148438 802.199219 C 644.148438 805.824219 647.101562 808.773438 650.726562 808.773438 C 654.414062 808.773438 657.367188 805.824219 657.367188 802.199219 Z M 657.367188 802.199219 " fill-opacity="1" fill-rule="nonzero"/><path fill="#345678" d="M 605.546875 729.046875 C 605.546875 725.359375 602.535156 722.40625 598.90625 722.40625 C 595.21875 722.40625 592.269531 725.359375 592.269531 729.046875 C 592.269531 732.671875 595.21875 735.625 598.90625 735.625 C 602.535156 735.625 605.546875 732.671875 605.546875 729.046875 Z M 605.546875 729.046875 " fill-opacity="1" fill-rule="nonzero"/><path fill="#345678" d="M 486.046875 826.601562 C 486.046875 830.226562 489.058594 833.179688 492.683594 833.179688 C 496.371094 833.179688 499.324219 830.226562 499.324219 826.601562 C 499.324219 822.976562 496.371094 819.960938 492.683594 819.960938 C 489.058594 819.960938 486.046875 822.976562 486.046875 826.601562 Z M 486.046875 826.601562 " fill-opacity="1" fill-rule="nonzero"/><path fill="#345678" d="M 791.121094 884.976562 L 767.339844 859.648438 C 760.589844 852.460938 755.980469 843.605469 754 834.027344 C 751.011719 819.585938 745.570312 797.875 736.628906 776.410156 C 723.148438 744.09375 475.6875 425.347656 445.675781 401.636719 C 438.449219 395.894531 429.234375 389.589844 419.015625 383.375 C 418.863281 383.261719 418.738281 383.121094 418.574219 383.023438 C 418.566406 383.015625 418.5625 383.011719 418.554688 383.003906 C 411.074219 378.449219 403.335938 374.042969 395.589844 369.929688 C 385.230469 364.367188 374.8125 359.253906 364.613281 354.722656 C 344.402344 345.796875 325.664062 339.53125 310.414062 336.601562 C 282.605469 331.296875 222.472656 331.234375 176.90625 332.125 C 157.816406 332.511719 141.953125 345.65625 137.6875 363.59375 L 82.566406 357.914062 C 69.175781 356.542969 55.714844 360.820312 45.601562 369.648438 C 35.53125 378.4375 29.503906 391.132812 29.066406 404.660156 L 29.066406 406.011719 C 29.066406 418.011719 33.628906 429.488281 41.539062 438.285156 C 37.78125 440.34375 34.277344 442.882812 31.21875 445.953125 C 25.539062 451.691406 21.523438 458.84375 19.605469 466.601562 C 16.65625 478.371094 18.546875 490.53125 24.945312 500.828125 C 31.390625 511.203125 41.539062 518.347656 53.53125 520.941406 C 114.523438 534.058594 157.558594 546.679688 174.722656 556.484375 C 186.839844 563.378906 204.894531 580.207031 226.777344 604.835938 C 209.105469 595.503906 188.214844 585.835938 171.324219 582.03125 C 154.8125 578.28125 122.015625 578.632812 73.796875 583.070312 C 62.710938 584.113281 52.738281 589.445312 45.730469 598.070312 C 38.742188 606.65625 35.574219 617.433594 36.800781 628.429688 C 37.925781 638.253906 42.546875 647.339844 49.789062 654.003906 C 57.003906 660.691406 66.445312 664.570312 76.421875 664.917969 C 122.636719 666.199219 155.789062 669.09375 167.390625 672.863281 C 191.097656 680.570312 239.335938 718.296875 257.058594 737.898438 C 263.855469 745.417969 283.871094 780.007812 305.066406 816.632812 C 339.644531 876.386719 378.839844 944.121094 396.84375 959.664062 C 414.996094 975.34375 441.71875 981.300781 467.558594 987.0625 C 484.933594 990.933594 501.339844 994.589844 513.929688 1000.898438 C 543.035156 1015.394531 603.199219 1094.917969 607.871094 1102.570312 C 608.820312 1104.730469 610.980469 1106.230469 613.488281 1106.230469 C 616.886719 1106.230469 619.636719 1103.476562 619.636719 1100.082031 C 619.636719 1091.851562 549.273438 1004.765625 519.425781 989.902344 C 505.488281 982.917969 488.363281 979.101562 470.226562 975.0625 C 445.875 969.632812 420.6875 964.015625 404.871094 950.355469 C 388.441406 936.167969 348.117188 866.472656 315.707031 810.476562 C 292.316406 770.058594 273.84375 738.132812 266.179688 729.65625 C 247.160156 708.632812 197.050781 669.585938 171.1875 661.167969 C 154.703125 655.820312 110.742188 653.578125 76.804688 652.636719 C 69.820312 652.390625 63.195312 649.679688 58.125 644.972656 C 53.035156 640.292969 49.800781 633.925781 49.011719 627.054688 C 48.152344 619.375 50.378906 611.839844 55.269531 605.828125 C 60.1875 599.777344 67.183594 596.046875 74.941406 595.308594 C 121.179688 591.050781 153.570312 590.601562 168.613281 594.019531 C 195.851562 600.160156 236.453125 623.9375 250.03125 632.191406 C 261.925781 646.707031 271.417969 659.066406 275.566406 664.53125 C 273.828125 667.925781 272.082031 671.324219 270.453125 674.765625 C 268.996094 677.839844 270.3125 681.503906 273.378906 682.953125 C 274.226562 683.355469 275.117188 683.546875 276.003906 683.546875 C 278.308594 683.546875 280.507812 682.25 281.558594 680.027344 C 283.679688 675.554688 285.914062 671.085938 288.210938 666.738281 C 293.640625 656.453125 299.933594 646.289062 306.898438 636.398438 C 324.324219 657.660156 342.367188 681.140625 361.886719 707.984375 C 384.316406 738.90625 403.765625 767.539062 419.386719 790.546875 C 430.40625 806.789062 439.113281 819.613281 445.339844 828.023438 C 473.074219 865.542969 520.222656 895.941406 530.402344 900.742188 C 531.25 901.140625 532.140625 901.332031 533.023438 901.332031 C 535.328125 901.332031 537.535156 900.03125 538.585938 897.808594 C 540.027344 894.738281 538.714844 891.074219 535.644531 889.628906 C 526.433594 885.277344 481.195312 855.851562 455.222656 820.71875 C 449.144531 812.507812 440.496094 799.769531 429.550781 783.644531 C 413.882812 760.570312 394.386719 731.84375 371.832031 700.769531 C 350.609375 671.582031 331.105469 646.3125 312.242188 623.542969 C 311.925781 622.859375 311.496094 622.226562 310.917969 621.679688 C 310.769531 621.539062 310.585938 621.496094 310.433594 621.371094 C 295.582031 603.523438 280.839844 586.953125 266.605469 572.140625 C 260.015625 565.304688 256.664062 556.316406 257.160156 546.839844 C 257.667969 537.382812 261.914062 528.839844 269.144531 522.773438 C 269.273438 522.65625 269.609375 522.355469 269.734375 522.230469 C 275.929688 517.214844 283.390625 514.566406 291.316406 514.566406 C 299.234375 514.566406 306.917969 517.332031 312.976562 522.378906 C 332.59375 538.558594 351.601562 552.5 369.441406 563.804688 C 370.433594 564.445312 371.371094 565.015625 371.976562 565.335938 C 372.09375 565.410156 372.199219 565.464844 372.316406 565.539062 C 372.5 565.636719 372.65625 565.777344 372.851562 565.859375 C 389.671875 576.257812 404.117188 583.316406 416.847656 589.523438 C 432.257812 597.03125 445.566406 603.515625 457.886719 613.566406 C 472.96875 625.886719 483.925781 637.828125 493.59375 648.371094 C 501.820312 657.332031 509.582031 665.796875 518.617188 673.195312 C 539.082031 689.933594 566.125 692.53125 567.265625 692.636719 C 570.703125 692.945312 573.628906 690.449219 573.929688 687.074219 C 574.238281 683.691406 571.75 680.707031 568.375 680.390625 C 568.128906 680.375 543.882812 677.976562 526.402344 663.683594 C 518.046875 656.847656 510.910156 649.070312 502.660156 640.066406 C 492.714844 629.222656 481.441406 616.929688 465.660156 604.050781 C 452.230469 593.097656 438.335938 586.328125 422.238281 578.484375 C 411.757812 573.375 400.027344 567.578125 386.71875 559.820312 C 390.457031 557.382812 394.238281 554.996094 398.109375 552.710938 C 406.667969 547.460938 415.625 542.566406 425.496094 537.753906 C 428.542969 536.265625 429.8125 532.582031 428.324219 529.535156 C 426.84375 526.492188 423.191406 525.214844 420.105469 526.707031 C 411.902344 530.703125 404.324219 534.773438 397.101562 539.007812 C 387.488281 522.570312 357.199219 473.523438 324.351562 448.304688 C 324.277344 448.246094 324.246094 448.160156 324.171875 448.101562 C 320.625 445.410156 317.429688 443.214844 314.410156 441.410156 C 305.898438 436.265625 293.652344 431.117188 278.082031 426.121094 C 278.027344 426.097656 277.96875 426.089844 277.914062 426.066406 C 277.792969 426.027344 277.679688 425.984375 277.558594 425.949219 C 266.007812 422.15625 252.257812 418.34375 236.699219 414.625 C 217.511719 409.996094 195.941406 405.539062 172.582031 401.390625 C 166.46875 400.308594 160.941406 397.308594 156.621094 392.71875 C 152.351562 388.191406 149.726562 382.523438 149.039062 376.359375 C 148.824219 374.367188 148.789062 372.554688 148.929688 370.816406 C 150.121094 356.082031 162.261719 344.738281 177.164062 344.4375 C 213.972656 343.71875 279.957031 343.324219 308.109375 348.691406 C 321.601562 351.285156 338.230469 356.816406 356.261719 364.570312 C 357.359375 381.382812 353.925781 392.964844 345.441406 400.640625 C 339.460938 405.957031 336.945312 414.335938 338.832031 422.296875 C 339 423.132812 339.148438 423.964844 339.148438 424.84375 C 339.148438 425.667969 339.03125 426.53125 338.785156 427.4375 C 335.269531 441.1875 339.058594 451.667969 348.9375 455.484375 C 350.96875 456.253906 353.070312 456.640625 355.210938 456.640625 C 361.726562 456.640625 368.621094 453.105469 375.144531 446.339844 C 377.886719 443.601562 381.464844 442.453125 384.789062 443.296875 C 396.15625 446.03125 406.5 444.613281 414.695312 439.195312 C 426.25 431.574219 426.484375 414.65625 424.574219 401.53125 C 429.566406 404.886719 434.144531 408.183594 438.046875 411.289062 C 467.695312 434.714844 711.984375 749.28125 725.292969 781.160156 C 733.859375 801.722656 739.09375 822.625 741.96875 836.535156 C 744.410156 848.332031 750.089844 859.242188 758.386719 868.082031 L 782.179688 893.410156 C 783.382812 894.695312 785.019531 895.34375 786.660156 895.34375 C 788.171875 895.34375 789.675781 894.792969 790.871094 893.679688 C 793.324219 891.335938 793.453125 887.445312 791.121094 884.976562 Z M 257.734375 580.671875 C 271.054688 594.539062 284.847656 610.019531 298.765625 626.640625 C 292.648438 635.128906 287.007812 643.828125 281.949219 652.660156 C 276.9375 646.132812 268.996094 635.964844 259.554688 624.441406 C 259.394531 624.1875 259.191406 623.980469 258.992188 623.75 C 258.949219 623.703125 258.914062 623.652344 258.871094 623.597656 C 235.535156 595.09375 203.054688 558.464844 180.820312 545.804688 C 157.46875 532.464844 100.113281 518.390625 56.132812 508.921875 C 47.425781 507.035156 40.070312 501.859375 35.398438 494.335938 C 30.769531 486.886719 29.398438 478.09375 31.535156 469.5625 C 32.933594 463.933594 35.839844 458.75 39.933594 454.605469 C 43.359375 451.183594 47.511719 448.625 52.019531 446.996094 C 57.765625 450.550781 64.179688 452.964844 70.816406 453.886719 C 115.253906 460.109375 173.105469 469.1875 196.414062 477.113281 C 201.320312 478.746094 206.398438 480.933594 211.972656 483.824219 C 223.007812 489.460938 234.164062 497.21875 245.144531 506.882812 C 250.109375 511.242188 254.007812 515.121094 256.644531 517.859375 C 249.679688 525.632812 245.433594 535.636719 244.875 546.179688 C 244.191406 559.113281 248.757812 571.359375 257.734375 580.671875 Z M 324.78125 464.675781 C 352.675781 489.785156 378.207031 531.152344 386.566406 545.375 C 382.675781 547.777344 378.84375 550.257812 375.082031 552.820312 C 357.921875 541.871094 339.667969 528.472656 320.816406 512.929688 C 312.578125 506.066406 302.097656 502.285156 291.308594 502.285156 C 282.273438 502.285156 273.484375 505.09375 266.058594 509.929688 C 263.953125 507.71875 261.035156 504.765625 257.347656 501.351562 C 260.132812 497.945312 264.992188 493.160156 271.878906 490.738281 C 277.882812 488.582031 282.1875 488.375 287.171875 488.132812 C 292.519531 487.875 298.585938 487.582031 307.058594 484.832031 C 317.761719 481.308594 322.59375 472.242188 324.78125 464.675781 Z M 242.550781 443.203125 C 245.167969 438.402344 245.496094 433.527344 244.890625 429.304688 C 253.386719 431.488281 261.121094 433.683594 268.207031 435.882812 C 265.324219 443.867188 258.703125 450.660156 247.976562 456.492188 C 245.003906 458.117188 243.894531 461.855469 245.527344 464.828125 C 246.636719 466.875 248.746094 468.039062 250.929688 468.039062 C 251.917969 468.039062 252.925781 467.796875 253.867188 467.289062 C 267.378906 459.929688 276.058594 450.640625 279.898438 439.652344 C 291.898438 443.75 301.371094 447.871094 308.074219 451.914062 C 309.949219 453.03125 311.96875 454.421875 314.085938 455.941406 C 313.496094 460.839844 311.3125 470.484375 303.246094 473.128906 C 296.355469 475.359375 291.597656 475.59375 286.570312 475.839844 C 281.097656 476.101562 275.445312 476.378906 267.746094 479.144531 C 258.386719 482.449219 251.898438 488.648438 248.046875 493.316406 C 238.832031 485.71875 229.5 479.355469 220.199219 474.351562 C 219.523438 470.492188 219.179688 463.960938 222.351562 460.347656 C 224.734375 457.632812 227.152344 456.320312 229.949219 454.804688 C 234.117188 452.546875 238.835938 449.992188 242.550781 443.203125 Z M 170.417969 413.476562 C 192.492188 417.398438 212.871094 421.589844 231.179688 425.949219 C 232.390625 428.511719 233.988281 433.226562 231.753906 437.308594 C 229.792969 440.910156 227.527344 442.140625 224.097656 443.996094 C 220.90625 445.722656 216.941406 447.871094 213.105469 452.246094 C 208.90625 457.035156 207.648438 463.003906 207.5 468.214844 C 205.078125 467.207031 202.679688 466.253906 200.34375 465.480469 C 176.15625 457.261719 117.488281 448.03125 72.519531 441.734375 C 66.667969 440.917969 61.238281 438.742188 56.390625 435.273438 C 46.984375 428.492188 41.367188 417.5625 41.367188 406.019531 L 41.359375 404.871094 C 41.691406 394.78125 46.074219 385.566406 53.691406 378.910156 C 61.355469 372.214844 71.203125 369.117188 81.308594 370.144531 L 136.691406 375.847656 C 136.734375 376.464844 136.738281 377.046875 136.808594 377.679688 C 137.796875 386.539062 141.550781 394.652344 147.664062 401.125 C 153.808594 407.660156 161.679688 411.933594 170.417969 413.476562 Z M 407.910156 428.917969 C 402.554688 432.464844 395.738281 433.277344 387.726562 431.347656 C 380.226562 429.472656 372.265625 431.800781 366.359375 437.714844 C 363.96875 440.179688 357.90625 445.738281 353.335938 443.992188 C 348.496094 442.128906 349.597656 434.722656 350.652344 430.554688 C 351.15625 428.703125 351.421875 426.722656 351.421875 424.824219 C 351.421875 422.875 351.128906 421.152344 350.824219 419.660156 C 349.945312 415.953125 351.035156 412.085938 353.636719 409.769531 C 363.773438 400.59375 368.695312 387.546875 368.714844 370.207031 C 374.671875 373.023438 380.652344 375.984375 386.65625 379.15625 C 386.8125 390.816406 381.886719 400.824219 371.535156 409.628906 C 368.949219 411.828125 368.632812 415.707031 370.835938 418.296875 C 372.050781 419.722656 373.78125 420.460938 375.519531 420.460938 C 376.925781 420.460938 378.347656 419.980469 379.496094 418.996094 C 390.738281 409.429688 397.089844 398.230469 398.601562 385.617188 C 402.488281 387.792969 406.328125 390.023438 410.121094 392.304688 C 413.503906 405.097656 415.457031 423.9375 407.910156 428.917969 Z M 407.910156 428.917969 " fill-opacity="1" fill-rule="nonzero"/><path fill="#345678" d="M 458.503906 697.449219 C 446.09375 697.449219 436.007812 707.488281 436.007812 719.824219 C 436.007812 732.164062 446.101562 742.203125 458.503906 742.203125 C 470.878906 742.203125 480.9375 732.164062 480.9375 719.824219 C 480.941406 707.488281 470.878906 697.449219 458.503906 697.449219 Z M 458.503906 697.449219 " fill-opacity="1" fill-rule="nonzero"/><path fill="#345678" d="M 657.980469 924.894531 C 657.980469 925.628906 657.945312 926.359375 657.871094 927.085938 C 657.800781 927.816406 657.691406 928.542969 657.550781 929.261719 C 657.40625 929.980469 657.226562 930.6875 657.015625 931.390625 C 656.800781 932.089844 656.554688 932.78125 656.273438 933.457031 C 655.992188 934.132812 655.679688 934.796875 655.332031 935.441406 C 654.984375 936.089844 654.609375 936.714844 654.199219 937.324219 C 653.792969 937.933594 653.355469 938.523438 652.886719 939.089844 C 652.421875 939.65625 651.929688 940.199219 651.410156 940.714844 C 650.890625 941.234375 650.34375 941.726562 649.777344 942.191406 C 649.210938 942.65625 648.621094 943.09375 648.007812 943.5 C 647.398438 943.90625 646.769531 944.28125 646.121094 944.628906 C 645.472656 944.972656 644.808594 945.285156 644.128906 945.566406 C 643.449219 945.847656 642.761719 946.09375 642.058594 946.308594 C 641.355469 946.519531 640.640625 946.699219 639.921875 946.839844 C 639.199219 946.984375 638.472656 947.089844 637.742188 947.164062 C 637.011719 947.234375 636.277344 947.269531 635.542969 947.269531 C 634.808594 947.269531 634.074219 947.234375 633.34375 947.164062 C 632.613281 947.089844 631.886719 946.984375 631.167969 946.839844 C 630.445312 946.699219 629.734375 946.519531 629.03125 946.308594 C 628.328125 946.09375 627.636719 945.847656 626.957031 945.566406 C 626.277344 945.285156 625.613281 944.972656 624.96875 944.628906 C 624.320312 944.28125 623.6875 943.90625 623.078125 943.5 C 622.46875 943.09375 621.878906 942.65625 621.308594 942.191406 C 620.742188 941.726562 620.199219 941.234375 619.679688 940.714844 C 619.160156 940.199219 618.664062 939.65625 618.199219 939.089844 C 617.734375 938.523438 617.296875 937.933594 616.886719 937.324219 C 616.480469 936.714844 616.101562 936.089844 615.757812 935.441406 C 615.410156 934.796875 615.09375 934.132812 614.8125 933.457031 C 614.535156 932.78125 614.285156 932.089844 614.074219 931.390625 C 613.859375 930.6875 613.679688 929.980469 613.539062 929.261719 C 613.394531 928.542969 613.285156 927.816406 613.214844 927.085938 C 613.144531 926.359375 613.105469 925.628906 613.105469 924.894531 C 613.105469 924.160156 613.144531 923.429688 613.214844 922.703125 C 613.285156 921.972656 613.394531 921.246094 613.539062 920.53125 C 613.679688 919.8125 613.859375 919.101562 614.074219 918.398438 C 614.285156 917.699219 614.535156 917.007812 614.816406 916.332031 C 615.097656 915.65625 615.410156 914.992188 615.757812 914.347656 C 616.101562 913.699219 616.480469 913.074219 616.886719 912.464844 C 617.296875 911.855469 617.734375 911.265625 618.199219 910.699219 C 618.664062 910.132812 619.160156 909.589844 619.679688 909.074219 C 620.199219 908.554688 620.742188 908.0625 621.308594 907.597656 C 621.878906 907.132812 622.46875 906.695312 623.078125 906.289062 C 623.6875 905.882812 624.320312 905.507812 624.96875 905.160156 C 625.613281 904.816406 626.277344 904.503906 626.957031 904.222656 C 627.636719 903.941406 628.328125 903.695312 629.03125 903.480469 C 629.734375 903.269531 630.445312 903.09375 631.167969 902.949219 C 631.886719 902.804688 632.613281 902.699219 633.34375 902.625 C 634.074219 902.554688 634.808594 902.519531 635.542969 902.519531 C 636.277344 902.519531 637.011719 902.554688 637.742188 902.625 C 638.472656 902.699219 639.199219 902.804688 639.921875 902.949219 C 640.640625 903.09375 641.355469 903.269531 642.058594 903.484375 C 642.761719 903.695312 643.449219 903.941406 644.128906 904.222656 C 644.808594 904.503906 645.472656 904.816406 646.121094 905.160156 C 646.769531 905.507812 647.398438 905.882812 648.007812 906.289062 C 648.621094 906.695312 649.210938 907.132812 649.777344 907.597656 C 650.34375 908.0625 650.890625 908.554688 651.410156 909.074219 C 651.929688 909.589844 652.421875 910.132812 652.886719 910.699219 C 653.355469 911.265625 653.792969 911.855469 654.199219 912.464844 C 654.609375 913.074219 654.984375 913.699219 655.332031 914.347656 C 655.679688 914.992188 655.992188 915.65625 656.273438 916.332031 C 656.554688 917.007812 656.800781 917.699219 657.015625 918.398438 C 657.226562 919.101562 657.40625 919.8125 657.550781 920.53125 C 657.691406 921.246094 657.800781 921.972656 657.871094 922.703125 C 657.945312 923.429688 657.980469 924.160156 657.980469 924.894531 Z M 657.980469 924.894531 " fill-opacity="1" fill-rule="nonzero"/><path fill="#345678" d="M 545.363281 932.523438 C 545.363281 944.859375 555.433594 954.898438 567.800781 954.898438 C 580.207031 954.898438 590.292969 944.859375 590.292969 932.523438 C 590.292969 920.1875 580.199219 910.148438 567.800781 910.148438 C 555.433594 910.140625 545.363281 920.179688 545.363281 932.523438 Z M 545.363281 932.523438 " fill-opacity="1" fill-rule="nonzero"/><path fill="#345678" d="M 635.691406 850.699219 C 644.941406 840.722656 645.109375 825.539062 636.046875 815.347656 L 633.761719 812.820312 C 631.46875 810.21875 630.203125 806.929688 630.203125 803.550781 C 630.203125 791.875 622.664062 781.757812 611.34375 778.335938 L 608.648438 777.578125 C 604.757812 776.378906 601.539062 773.5625 599.839844 769.917969 L 592.207031 752.984375 C 589.574219 747.242188 584.957031 742.632812 579.21875 739.996094 C 562.023438 732.121094 529.878906 721.085938 507.859375 735.660156 C 485.699219 750.351562 483.90625 777.222656 502.808594 811.324219 C 502.8125 811.332031 502.8125 811.332031 502.820312 811.339844 C 517.160156 837.039062 546.070312 880.40625 578.578125 882.105469 C 579.222656 882.136719 579.867188 882.148438 580.507812 882.148438 C 601.757812 882.152344 622.148438 865.1875 635.691406 850.699219 Z M 546.894531 768.042969 C 542.15625 770.5625 539.734375 780.214844 542.273438 786.492188 C 543.546875 789.640625 542.027344 793.222656 538.878906 794.496094 C 538.125 794.796875 537.34375 794.945312 536.574219 794.945312 C 534.140625 794.945312 531.839844 793.492188 530.875 791.101562 C 526.394531 780.035156 529.832031 763.179688 541.128906 757.183594 C 544.125 755.589844 547.855469 756.734375 549.441406 759.734375 C 551.039062 762.726562 549.902344 766.453125 546.894531 768.042969 Z M 596.515625 848.007812 C 592.933594 850.300781 589.238281 851.191406 585.714844 851.191406 C 578.410156 851.191406 571.808594 847.359375 568.214844 844.175781 C 565.667969 841.925781 565.441406 838.042969 567.691406 835.496094 C 569.933594 832.964844 573.800781 832.722656 576.339844 834.957031 C 576.53125 835.121094 583.992188 841.398438 589.882812 837.648438 C 595.304688 834.167969 591.394531 823.761719 591.351562 823.65625 C 590.109375 820.511719 591.648438 816.9375 594.789062 815.683594 C 597.929688 814.4375 601.5 815.941406 602.761719 819.078125 C 605.734375 826.421875 607.765625 840.78125 596.515625 848.007812 Z M 596.515625 848.007812 " fill-opacity="1" fill-rule="nonzero"/><g clip-path="url(#fb647cf61f)"><g clip-path="url(#c728a203b7)"><g clip-path="url(#f183b0dc05)"><g clip-path="url(#b982a67e0c)"><g clip-path="url(#324875046e)"><path fill="#345678" d="M 381.324219 905.707031 L 380.78125 904.800781 C 379.433594 902.550781 380.164062 899.625 382.421875 898.269531 C 384.691406 896.914062 387.617188 897.648438 388.964844 899.898438 L 389.507812 900.804688 C 390.855469 903.054688 390.125 905.984375 387.859375 907.34375 C 385.597656 908.695312 382.671875 907.957031 381.324219 905.707031 Z M 358.433594 861.925781 C 352.703125 852.355469 358.757812 839.09375 359.46875 837.609375 C 360.613281 835.234375 363.453125 834.222656 365.832031 835.355469 C 368.203125 836.480469 369.214844 839.324219 368.082031 841.695312 C 366.851562 844.269531 363.980469 852.59375 366.628906 857.015625 C 367.976562 859.265625 367.230469 862.191406 364.972656 863.542969 C 362.703125 864.902344 359.785156 864.175781 358.433594 861.925781 Z M 341.484375 830.929688 C 336.757812 829.726562 333.488281 826.585938 331.316406 822.960938 C 328.074219 817.542969 327.273438 811.066406 327.71875 808.429688 C 328.160156 805.839844 330.613281 804.085938 333.21875 804.511719 C 335.800781 804.945312 337.53125 807.355469 337.128906 809.925781 C 336.984375 811.863281 338.832031 820.433594 343.832031 821.6875 C 346.394531 822.332031 347.929688 824.917969 347.285156 827.46875 C 346.640625 830.019531 344.035156 831.566406 341.484375 830.929688 Z M 344.457031 794.898438 C 344.828125 794.40625 345.308594 793.984375 345.839844 793.664062 C 346.109375 793.503906 346.390625 793.386719 346.683594 793.265625 C 346.992188 793.164062 347.296875 793.089844 347.59375 793.019531 C 347.902344 792.984375 348.214844 792.984375 348.519531 792.992188 C 348.835938 793.003906 349.144531 793.066406 349.449219 793.140625 C 349.753906 793.199219 350.042969 793.296875 350.320312 793.441406 C 350.628906 793.570312 350.890625 793.738281 351.140625 793.925781 C 351.382812 794.105469 351.621094 794.300781 351.824219 794.546875 C 352.257812 795 352.574219 795.527344 352.773438 796.128906 C 352.894531 796.421875 352.964844 796.746094 353.007812 797.042969 C 353.054688 797.351562 353.074219 797.652344 353.035156 797.972656 C 353.027344 798.277344 352.980469 798.585938 352.90625 798.917969 C 352.824219 799.210938 352.71875 799.488281 352.582031 799.773438 C 352.457031 800.066406 352.304688 800.332031 352.125 800.578125 C 351.933594 800.824219 351.722656 801.0625 351.476562 801.261719 C 351.242188 801.484375 350.992188 801.660156 350.722656 801.820312 C 349.636719 802.472656 348.359375 802.65625 347.132812 802.375 C 346.808594 802.285156 346.511719 802.179688 346.242188 802.042969 C 345.941406 801.925781 345.683594 801.769531 345.433594 801.582031 C 345.191406 801.402344 344.941406 801.1875 344.738281 800.941406 C 344.535156 800.738281 344.34375 800.460938 344.1875 800.203125 C 343.539062 799.117188 343.359375 797.84375 343.671875 796.601562 C 343.808594 795.992188 344.074219 795.414062 344.457031 794.898438 Z M 310.300781 786.769531 C 309.101562 784.765625 305.457031 778.683594 308.816406 772.191406 C 310.027344 769.855469 312.90625 768.929688 315.246094 770.136719 C 317.582031 771.335938 318.5 774.210938 317.28125 776.550781 C 316.964844 777.175781 316.359375 778.320312 318.484375 781.867188 C 319.832031 784.117188 319.101562 787.042969 316.832031 788.402344 C 314.574219 789.753906 311.648438 789.019531 310.300781 786.769531 Z M 398.3125 891.730469 C 395.921875 887.734375 392.554688 884.585938 388.488281 882.445312 C 386.628906 884.304688 385.039062 885.460938 384.792969 885.632812 C 382.628906 887.148438 379.65625 886.628906 378.148438 884.472656 C 378.078125 884.378906 378.023438 884.289062 377.964844 884.1875 C 376.695312 882.070312 377.253906 879.308594 379.3125 877.847656 C 379.386719 877.789062 381.65625 876.160156 383.488281 873.761719 C 383.515625 873.734375 383.558594 873.695312 383.582031 873.667969 C 383.617188 873.632812 383.632812 873.59375 383.652344 873.554688 C 392.847656 862.890625 394.148438 847.605469 386.898438 835.507812 C 383.035156 829.054688 377.019531 824.09375 369.964844 821.566406 C 369.945312 821.550781 369.914062 821.527344 369.878906 821.511719 C 369.808594 821.484375 369.726562 821.464844 369.660156 821.4375 C 366.867188 820.203125 362.464844 820.148438 361 820.222656 C 359.175781 820.328125 357.535156 819.378906 356.660156 817.914062 C 356.277344 817.277344 356.039062 816.539062 355.996094 815.742188 C 355.851562 813.121094 357.847656 810.882812 360.476562 810.714844 C 360.949219 810.6875 363.828125 810.546875 367.222656 811.03125 C 367.117188 805.367188 365.554688 799.878906 362.570312 794.898438 C 357.183594 785.90625 347.898438 780.128906 337.652344 779.164062 C 337.328125 783.835938 335.917969 787.105469 335.695312 787.589844 C 334.566406 789.96875 331.738281 791.003906 329.347656 789.890625 C 328.449219 789.480469 327.753906 788.816406 327.28125 788.03125 C 326.507812 786.734375 326.363281 785.089844 327.035156 783.605469 C 327.101562 783.46875 328.789062 779.480469 327.964844 774.507812 C 327.667969 773.898438 327.347656 773.269531 326.976562 772.652344 C 319.847656 760.75 304.382812 756.851562 292.511719 763.960938 C 290.773438 765.003906 289.191406 766.21875 287.792969 767.601562 L 384.269531 928.640625 C 386.15625 928.050781 387.964844 927.238281 389.703125 926.195312 C 401.574219 919.085938 405.4375 903.617188 398.3125 891.730469 " fill-opacity="1" fill-rule="nonzero"/></g></g></g></g></g><g clip-path="url(#8151291c7f)"><path fill="#345678" d="M 455.714844 946.816406 C 427.066406 982.054688 384.582031 1002.269531 339.148438 1002.269531 C 304.820312 1002.269531 271.214844 990.300781 244.527344 968.574219 C 180.316406 916.273438 170.566406 821.433594 222.792969 757.167969 C 251.433594 721.925781 293.914062 701.71875 339.34375 701.71875 C 373.675781 701.71875 407.285156 713.6875 433.980469 735.421875 C 498.171875 787.6875 507.921875 882.519531 455.714844 946.816406 Z M 194.386719 1025.398438 L 183.980469 1016.199219 L 226.4375 967.863281 C 229.726562 971.066406 233.171875 974.160156 236.785156 977.128906 Z M 191.007812 1049.171875 L 98.25 1154.273438 C 96.636719 1156.105469 94.308594 1157.152344 91.871094 1157.152344 C 89.796875 1157.152344 87.796875 1156.394531 86.238281 1155.011719 L 68.402344 1139.246094 C 66.695312 1137.738281 65.679688 1135.648438 65.539062 1133.375 C 65.394531 1131.105469 66.144531 1128.917969 67.652344 1127.210938 L 160.414062 1022.105469 C 162.027344 1020.28125 164.351562 1019.230469 166.796875 1019.230469 C 168.871094 1019.230469 170.867188 1019.988281 172.421875 1021.363281 L 190.261719 1037.148438 C 191.96875 1038.652344 192.984375 1040.738281 193.125 1043.011719 C 193.265625 1045.28125 192.515625 1047.464844 191.007812 1049.171875 Z M 441.25 726.472656 C 412.511719 703.070312 376.316406 690.183594 339.34375 690.183594 C 290.433594 690.183594 244.695312 711.945312 213.855469 749.886719 C 163.191406 812.230469 166.703125 901.28125 218.441406 959.496094 L 174.667969 1009.332031 C 172.199219 1008.273438 169.527344 1007.695312 166.796875 1007.695312 C 161.046875 1007.695312 155.570312 1010.167969 151.777344 1014.472656 L 59.019531 1119.570312 C 55.472656 1123.585938 53.703125 1128.742188 54.039062 1134.09375 C 54.367188 1139.4375 56.757812 1144.335938 60.769531 1147.890625 L 78.605469 1163.65625 C 82.269531 1166.898438 86.980469 1168.6875 91.871094 1168.6875 C 97.617188 1168.6875 103.09375 1166.214844 106.886719 1161.90625 L 199.640625 1056.8125 C 203.1875 1052.800781 204.957031 1047.648438 204.625 1042.300781 C 204.441406 1039.324219 203.597656 1036.5 202.214844 1033.953125 L 245.996094 984.109375 C 273.160156 1003.304688 305.828125 1013.804688 339.148438 1013.804688 C 388.0625 1013.804688 433.808594 992.042969 464.652344 954.097656 C 520.867188 884.859375 510.367188 782.75 441.25 726.472656 " fill-opacity="1" fill-rule="nonzero"/></g><path fill="#345678" d="M 432.925781 928.269531 C 409.886719 956.621094 375.714844 972.882812 339.167969 972.882812 C 311.550781 972.882812 284.515625 963.253906 263.039062 945.765625 C 238.023438 925.394531 222.421875 896.484375 219.121094 864.363281 C 215.816406 832.238281 225.210938 800.75 245.5625 775.703125 C 268.605469 747.351562 302.777344 731.09375 339.324219 731.09375 C 366.9375 731.09375 393.980469 740.722656 415.453125 758.210938 C 440.476562 778.582031 456.082031 807.492188 459.378906 839.613281 C 462.679688 871.734375 453.285156 903.21875 432.925781 928.269531 Z M 470.839844 838.433594 C 467.226562 803.25 450.140625 771.578125 422.722656 749.261719 C 399.199219 730.105469 369.582031 719.558594 339.324219 719.558594 C 299.292969 719.558594 261.859375 737.367188 236.621094 768.425781 C 214.328125 795.863281 204.039062 830.355469 207.65625 865.546875 C 211.273438 900.730469 228.363281 932.398438 255.769531 954.71875 C 279.292969 973.867188 308.910156 984.417969 339.167969 984.417969 C 379.199219 984.417969 416.632812 966.605469 441.867188 935.550781 C 464.167969 908.105469 474.453125 873.617188 470.839844 838.433594 " fill-opacity="1" fill-rule="nonzero"/></svg>